{
  "accessors": [
    {
      "bufferView": 2,
      "componentType": 5126,
      "count": 36,
      "max": [
        179.09381103515625,
        562.2230224609375,
        136.2438201904297
      ],
      "min": [
        -81.62541198730469,
        113.30918884277344,
        -182.51707458496094
      ],
      "type": "VEC3"
    },
    {
      "bufferView": 2,
      "byteOffset": 432,
      "componentType": 5126,
      "count": 36,
      "max": [
        1.0,
        2.9855513616894314e-07,
        1.0
      ],
      "min": [
        -1.0,
        -1.5439997014254914e-07,
        -1.0
      ],
      "type": "VEC3"
    },
    {
      "bufferView": 1,
      "componentType": 5126,
      "count": 36,
      "max": [
        0.6173473596572876,
        0.5634661316871643
      ],
      "min": [
        0.3823983073234558,
        0.44736921787261963
      ],
      "type": "VEC2"
    },
    {
      "bufferView": 0,
      "componentType": 5125,
      "count": 72,
      "type": "SCALAR"
    },
    {
      "bufferView": 2,
      "byteOffset": 864,
      "componentType": 5126,
      "count": 35448,
      "max": [
        348.464111328125,
        723.4387817382813,
        323.52227783203125
      ],
      "min": [
        -279.81756591796875,
        -21.89194107055664,
        -359.64599609375
      ],
      "type": "VEC3"
    },
    {
      "bufferView": 2,
      "byteOffset": 426240,
      "componentType": 5126,
      "count": 35448,
      "max": [
        1.0,
        1.0,
        1.0
      ],
      "min": [
        -1.0,
        -1.0,
        -1.0
      ],
      "type": "VEC3"
    },
    {
      "bufferView": 1,
      "byteOffset": 288,
      "componentType": 5126,
      "count": 35448,
      "max": [
        0.9993352890014648,
        0.9974486827850342
      ],
      "min": [
        0.0017222054302692413,
        0.0005526678869500756
      ],
      "type": "VEC2"
    },
    {
      "bufferView": 0,
      "byteOffset": 288,
      "componentType": 5125,
      "count": 77100,
      "type": "SCALAR"
    },
    {
      "bufferView": 2,
      "byteOffset": 851616,
      "componentType": 5126,
      "count": 25754,
      "max": [
        341.8926696777344,
        550.9732055664063,
        347.713134765625
      ],
      "min": [
        -289.6837158203125,
        -131.52804565429688,
        -389.55615234375
      ],
      "type": "VEC3"
    },
    {
      "bufferView": 2,
      "byteOffset": 1160664,
      "componentType": 5126,
      "count": 25754,
      "max": [
        1.0,
        1.0,
        1.0
      ],
      "min": [
        -0.9998956322669983,
        -1.0,
        -1.0
      ],
      "type": "VEC3"
    },
    {
      "bufferView": 1,
      "byteOffset": 283872,
      "componentType": 5126,
      "count": 25754,
      "max": [
        0.9934406876564026,
        0.9955589175224304
      ],
      "min": [
        0.0014954805374145508,
        0.003733813762664795
      ],
      "type": "VEC2"
    },
    {
      "bufferView": 0,
      "byteOffset": 308688,
      "componentType": 5125,
      "count": 93957,
      "type": "SCALAR"
    }
  ],
  "asset": {
    "extras": {
      "author": "VerbeeckTom (https://sketchfab.com/VerbeeckTom)",
      "license": "CC-BY-4.0 (http://creativecommons.org/licenses/by/4.0/)",
      "source": "https://sketchfab.com/3d-models/viking-carrot-farm-a5f9fd422a3a4ee58ed1b1c3db7dafb7",
      "title": "Viking Carrot Farm"
    },
    "generator": "Sketchfab-11.3.0",
    "version": "2.0"
  },
  "bufferViews": [
    {
      "buffer": 0,
      "byteLength": 684516,
      "name": "floatBufferViews",
      "target": 34963
    },
    {
      "buffer": 0,
      "byteLength": 489904,
      "byteOffset": 684516,
      "byteStride": 8,
      "name": "floatBufferViews",
      "target": 34962
    },
    {
      "buffer": 0,
      "byteLength": 1469712,
      "byteOffset": 1174420,
      "byteStride": 12,
      "name": "floatBufferViews",
      "target": 34962
    }
  ],
  "buffers": [
    {
      "byteLength": 2644132,
      "uri": "scene.bin"
    }
  ],
  "images": [
    {
      "uri": "textures/M_Windows_baseColor.jpeg"
    },
    {
      "uri": "textures/M_Nature_baseColor.jpeg"
    }
  ],
  "materials": [
    {
      "doubleSided": true,
      "emissiveFactor": [
        1.0,
        1.0,
        1.0
      ],
      "emissiveTexture": {
        "index": 0
      },
      "name": "M_Windows",
      "pbrMetallicRoughness": {
        "baseColorTexture": {
          "index": 0
        },
        "metallicFactor": 0.0,
        "roughnessFactor": 0.6
      }
    },
    {
      "doubleSided": true,
      "name": "M_HouseProps",
      "pbrMetallicRoughness": {
        "baseColorTexture": {
          "index": 0
        },
        "metallicFactor": 0.0,
        "roughnessFactor": 0.6
      }
    },
    {
      "doubleSided": true,
      "name": "M_Nature",
      "pbrMetallicRoughness": {
        "baseColorTexture": {
          "index": 1
        },
        "metallicFactor": 0.0,
        "roughnessFactor": 0.6
      }
    }
  ],
  "meshes": [
    {
      "name": "HouseProps_geo_01_M_Windows_0",
      "primitives": [
        {
          "attributes": {
            "NORMAL": 1,
            "POSITION": 0,
            "TEXCOORD_0": 2
          },
          "indices": 3,
          "material": 0,
          "mode": 4
        }
      ]
    },
    {
      "name": "HouseProps_geo_01_M_HouseProps_0",
      "primitives": [
        {
          "attributes": {
            "NORMAL": 5,
            "POSITION": 4,
            "TEXCOORD_0": 6
          },
          "indices": 7,
          "material": 1,
          "mode": 4
        }
      ]
    },
    {
      "name": "HouseProps_geo_01_M_Nature_0",
      "primitives": [
        {
          "attributes": {
            "NORMAL": 9,
            "POSITION": 8,
            "TEXCOORD_0": 10
          },
          "indices": 11,
          "material": 2,
          "mode": 4
        }
      ]
    }
  ],
  "nodes": [
    {
      "children": [
        1
      ],
      "matrix": [
        1.0,
        0.0,
        0.0,
        0.0,
        0.0,
        2.220446049250313e-16,
        -1.0,
        0.0,
        0.0,
        1.0,
        2.220446049250313e-16,
        0.0,
        0.0,
        0.0,
        0.0,
        1.0
      ],
      "name": "Sketchfab_model"
    },
    {
      "children": [
        2
      ],
      "matrix": [
        1.0,
        0.0,
        0.0,
        0.0,
        0.0,
        0.0,
        1.0,
        0.0,
        0.0,
        -1.0,
        0.0,
        0.0,
        0.0,
        0.0,
        0.0,
        1.0
      ],
      "name": "a21efaa3cb4a47ff9643fc1aee92409a.fbx"
    },
    {
      "children": [
        3
      ],
      "name": "RootNode"
    },
    {
      "children": [
        4,
        5,
        6
      ],
      "name": "HouseProps_geo_01"
    },
    {
      "mesh": 0,
      "name": "HouseProps_geo_01_M_Windows_0"
    },
    {
      "mesh": 1,
      "name": "HouseProps_geo_01_M_HouseProps_0"
    },
    {
      "mesh": 2,
      "name": "HouseProps_geo_01_M_Nature_0"
    }
  ],
  "samplers": [
    {
      "magFilter": 9729,
      "minFilter": 9987,
      "wrapS": 10497,
      "wrapT": 10497
    }
  ],
  "scene": 0,
  "scenes": [
    {
      "name": "Sketchfab_Scene",
      "nodes": [
        0
      ]
    }
  ],
  "textures": [
    {
      "sampler": 0,
      "source": 0
    },
    {
      "sampler": 0,
      "source": 1
    }
  ]
}
